<?xml version="1.0" encoding="UTF-8"?>
<svg id="Layer_2" data-name="Layer 2" xmlns="http://www.w3.org/2000/svg" viewBox="0 0 16 16">
  <defs>
    <style>
      .cls-1 {
        fill: #fff;
      }

      .cls-2, .cls-3 {
        fill: #65232e;
      }

      .cls-3 {
        stroke: #fff;
        stroke-miterlimit: 10;
        stroke-width: .25px;
      }
    </style>
  </defs>
  <g id="Layer_2-2" data-name="Layer 2">
    <g>
      <circle class="cls-2" cx="8" cy="8" r="8"/>
      <circle class="cls-3" cx="8" cy="8" r="7.11"/>
      <g>
        <path class="cls-1" d="M2.76,8.99c0-.57.66-1.27,1.27-1.27.22,0,.46.1.46.43,0,.4-.28.73-.55.73-.08,0-.14-.06-.14-.13,0-.16.23-.3.41-.3.06,0,.11.01.13.03.05-.08.08-.24.08-.32,0-.27-.19-.38-.41-.38-.55,0-1.2.66-1.2,1.2,0,.34.2.56.53.56.57,0,1.16-.37,3.17-2.06.22-.18.42-.36.62-.53h-.7c-.22,0-.36.05-.44.14-.03.03-.05.03-.06.03-.02,0-.02-.02,0-.04.1-.14.24-.24.51-.24h.8c.59-.53,1.11-1.05,1.68-1.61.6-.59,1-.91,1.25-.91.12,0,.16.14.16.23,0,.17-.12.33-.27.52-.95,1.1-1.4,1.62-2.24,2.69-.69.86-.84,1.33-.84,1.53,0,.17.09.23.22.23.5,0,1.19-.74,1.85-1.43.02-.02.06-.02.07,0-.69.72-1.39,1.49-1.93,1.49-.23,0-.37-.18-.37-.45s.14-.81.78-1.6c.16-.2.33-.42.53-.65-.2.04-.37.05-.54.05h-.36c-.22.19-.44.38-.68.58-2.03,1.7-2.62,2.07-3.21,2.07-.38,0-.59-.24-.59-.6ZM8.17,6.84c.59-.71,1.3-1.54,1.92-2.23.08-.09.1-.14.1-.17,0-.03-.02-.05-.06-.05-.2,0-.59.31-1.17.88-.61.61-1.09,1.09-1.62,1.56h.82Z"/>
        <path class="cls-1" d="M7.28,11.64c0-.55.48-1.38,1.17-2.18-.61-.11-1.01-.54-1.01-1.1,0-.8.72-1.29,1.19-1.4.03,0,.03.03.02.04-.44.1-1.15.6-1.15,1.37,0,.53.4.95,1,1.04,1.06-1.22,2.57-2.36,3.53-2.36.23,0,.35.13.35.29,0,.59-1.78,2.12-3.58,2.14-.74.88-1.29,1.81-1.29,2.39,0,.28.17.48.52.48.99,0,2.45-1.49,2.45-2.17,0-.19-.09-.29-.27-.29-.55,0-1.29.8-1.64,1.28-.02.01-.05,0-.03-.03.31-.48,1.1-1.3,1.68-1.3.21,0,.32.12.32.35,0,.72-1.5,2.22-2.51,2.22-.55,0-.73-.35-.73-.76ZM12.32,7.34c0-.13-.09-.23-.29-.23-.79,0-2.16,1.11-3.19,2.32,1.76-.05,3.48-1.54,3.48-2.09Z"/>
      </g>
    </g>
  </g>
</svg>