<?xml version="1.0" encoding="UTF-8"?>
<svg id="Layer_2" data-name="Layer 2" xmlns="http://www.w3.org/2000/svg" xmlns:xlink="http://www.w3.org/1999/xlink" viewBox="0 0 1340.11 1609.71">
  <defs>
    <style>
      .cls-1, .cls-2 {
        fill: #fff;
      }

      .cls-2 {
        stroke: #000;
        stroke-miterlimit: 10;
      }

      .cls-3 {
        fill: none;
      }

      .cls-4 {
        clip-path: url(#clippath);
      }

      .cls-5 {
        opacity: .5;
      }
    </style>
    <clipPath id="clippath">
      <path class="cls-3" d="M125.7,726.99l321.91,338.72h444.89l321.91-338.72c13.22-13.91,31.56-21.78,50.75-21.78h14.45v-69.32c0-18.64-7.6-36.48-21.05-49.38L780.34,127.5c-61.6-59.12-158.86-59.12-220.46,0L81.6,586.56c-13.41,12.87-20.99,30.65-20.99,49.24v69.41h14.34c19.19,0,37.53,7.87,50.75,21.78Z"/>
    </clipPath>
  </defs>
  <g id="Layer_2-2" data-name="Layer 2">
    <polygon class="cls-3" points="1084.56 1238.47 1049.97 1203.71 1049.97 1203.71 1084.56 1238.47"/>
    <g>
      <rect class="cls-1" x="1020.11" y="1131.38" width="0" height="84.66"/>
      <polygon points="990.25 1143.71 990.25 1143.71 1049.97 1203.71 990.25 1143.71 990.25 1143.71"/>
    </g>
    <g>
      <polygon class="cls-1" points="349.86 1143.71 290.14 1203.71 290.25 1203.71 349.97 1143.71 349.86 1143.71"/>
      <polygon points="349.97 1143.71 349.86 1143.71 290.14 1203.71 290.25 1203.71 349.97 1143.71 349.97 1143.71"/>
    </g>
    <g>
      <path class="cls-1" d="M1280.11,704.71v-68.82c0-18.68-7.73-36.81-21.21-49.74L780.68,127.14c-29.88-28.68-69.15-44.48-110.57-44.48s-80.69,15.8-110.57,44.48L81.25,586.2c-13.44,12.9-21.14,30.97-21.14,49.6v68.91H1.11v-94.49c0-18.35,7.59-36.17,20.83-48.88L560.23,44.7C589.92,16.2,628.95.5,670.11.5s80.19,15.7,109.88,44.2l538.22,516.58c13.28,12.75,20.9,30.62,20.9,49.02v94.4h-59Z"/>
      <path d="M670.11,1c41.03,0,79.93,15.65,109.54,44.06l538.22,516.58c13.18,12.65,20.74,30.39,20.74,48.66v93.9h-58v-68.32c0-18.81-7.78-37.08-21.36-50.11L781.03,126.78c-29.98-28.77-69.37-44.62-110.92-44.62s-80.94,15.85-110.92,44.62L80.9,585.84c-13.53,12.99-21.3,31.2-21.3,49.96v68.41H1.61v-93.99c0-18.22,7.54-35.9,20.68-48.51L560.57,45.06c29.6-28.41,68.5-44.06,109.54-44.06M670.11,0c-39.72,0-79.43,14.78-110.23,44.34L21.6,560.98c-13.41,12.87-20.99,30.65-20.99,49.24v94.99h60v-69.41c0-18.58,7.58-36.37,20.99-49.24L559.88,127.5c30.8-29.56,70.51-44.34,110.23-44.34s79.43,14.78,110.23,44.34l478.22,459c13.45,12.91,21.05,30.74,21.05,49.38v69.32h60v-94.9c0-18.64-7.6-36.48-21.05-49.38L780.34,44.34C749.54,14.78,709.82,0,670.11,0h0Z"/>
    </g>
    <g>
      <path class="cls-1" d="M908.17,1066.1c3.91.78,7.53,2.71,10.38,5.58l71.69,72.03h0l-71.69-72.03c-2.85-2.87-6.48-4.79-10.38-5.58Z"/>
      <path d="M908.17,1066.1c3.91.78,7.53,2.71,10.38,5.58l71.69,72.03h0l-71.69-72.03c-2.85-2.87-6.48-4.79-10.38-5.58h0Z"/>
    </g>
    <g>
      <path class="cls-1" d="M436.04,1065.71h-.12c-5.39,0-10.56,2.15-14.37,5.97l-71.69,72.03h.11l71.69-72.02c3.81-3.83,8.99-5.98,14.39-5.98Z"/>
      <path d="M436.04,1065.71h-.12c-5.39,0-10.56,2.15-14.37,5.97l-71.69,72.03h.11l71.69-72.02c3.81-3.83,8.99-5.98,14.39-5.98h0Z"/>
    </g>
    <g>
      <path class="cls-1" d="M447.82,1065.21L126.06,726.65c-13.25-13.94-31.88-21.94-51.12-21.94h-13.84v-68.91c0-18.35,7.59-36.17,20.83-48.88L560.23,127.86c29.69-28.5,68.72-44.2,109.88-44.2,0,0,0,0,0,0,41.16,0,80.19,15.7,109.88,44.2l478.22,459c13.28,12.75,20.9,30.62,20.9,49.02v68.82h-13.95c-19.23,0-37.87,8-51.11,21.94l-321.76,338.56h-444.46Z"/>
      <path d="M670.11,84.17c41.03,0,79.93,15.65,109.54,44.06l478.22,459c13.18,12.65,20.74,30.39,20.74,48.66v68.32h-13.45c-19.37,0-38.13,8.05-51.48,22.09l-321.61,338.41h-444.03L126.43,726.3c-13.34-14.04-32.11-22.09-51.48-22.09h-13.34v-68.41c0-18.22,7.54-35.9,20.68-48.51l478.28-459.06c29.6-28.41,68.5-44.06,109.54-44.06M670.11,83.17c-39.72,0-79.43,14.78-110.23,44.34L81.6,586.56c-13.41,12.87-20.99,30.65-20.99,49.24v69.41h14.34c19.19,0,37.53,7.87,50.75,21.78l321.91,338.72h444.89l321.91-338.72c13.22-13.91,31.56-21.78,50.75-21.78h14.45v-69.32c0-18.64-7.6-36.48-21.05-49.38L780.34,127.5c-30.8-29.56-70.51-44.34-110.23-44.34h0Z"/>
    </g>
    <g>
      <g class="cls-4">
        <image width="1067" height="1600" transform="translate(62.61 -286.29) scale(1.22)" xlink:href="../../../../Downloads/CarolynAndrewEngagedB&amp;W-167_websize.jpg"/>
      </g>
      <path class="cls-5" d="M125.7,726.99l321.91,338.72h444.89l321.91-338.72c13.22-13.91,31.56-21.78,50.75-21.78h14.45v-69.32c0-18.64-7.6-36.48-21.05-49.38L780.34,127.5c-61.6-59.12-158.86-59.12-220.46,0L81.6,586.56c-13.41,12.87-20.99,30.65-20.99,49.24v69.41h14.34c19.19,0,37.53,7.87,50.75,21.78Z"/>
    </g>
    <path class="cls-2" d="M1279.61,705.21h-14.45c-19.19,0-37.53,7.87-50.75,21.78l-321.91,338.72h11.68c1.35,0,2.68.13,3.99.4,3.91.78,7.53,2.71,10.38,5.58l71.69,72.03,59.72,60,34.6,34.76,249.02,250.18c1.45,1.45,2.66,3.1,3.6,4.88,1.58,2.97,2.42,6.3,2.42,9.72v-798.04h-60Z"/>
    <path class="cls-2" d="M125.7,726.99c-13.22-13.91-31.56-21.78-50.75-21.78H.5v798.04c0-5.47,2.17-10.72,6.03-14.6l283.62-284.94,59.72-60,71.69-72.03c3.8-3.82,8.98-5.97,14.37-5.97h11.68L125.7,726.99Z"/>
    <g>
      <path class="cls-1" d="M26.23,1609.21c-13.85,0-25.12-11.27-25.12-25.12v-80.87c0-5.35,2.08-10.39,5.85-14.18l415.05-416.99c3.69-3.71,8.8-5.83,14.03-5.83h468.14c1.3,0,2.61.13,3.89.39,3.85.77,7.36,2.65,10.13,5.44l415.03,416.97c1.4,1.41,2.58,3.01,3.52,4.76,1.55,2.91,2.37,6.19,2.37,9.48v80.83c0,13.85-11.27,25.12-25.12,25.12H26.23Z"/>
      <path d="M904.18,1066.71c1.27,0,2.54.13,3.79.38,3.76.75,7.17,2.59,9.87,5.3l71.69,72.03,59.72,60,34.6,34.76,249.02,250.18c1.37,1.37,2.52,2.94,3.43,4.64,1.51,2.84,2.31,6.04,2.31,9.25v80.83c0,13.58-11.05,24.62-24.62,24.62H26.23c-13.58,0-24.62-11.05-24.62-24.62v-80.87c0-5.22,2.03-10.13,5.71-13.83l283.64-284.97,59.72-60,71.69-72.02c3.6-3.61,8.58-5.68,13.68-5.68h468.14M904.18,1065.71h-468.14c-5.4,0-10.58,2.15-14.39,5.98l-71.69,72.02-59.72,60L6.61,1488.68c-3.84,3.86-6,9.09-6,14.53v80.87c0,14.15,11.47,25.62,25.62,25.62h1287.75c14.15,0,25.62-11.47,25.62-25.62v-80.83c0-3.42-.85-6.75-2.42-9.72-.95-1.78-2.16-3.43-3.6-4.88l-249.02-250.18-34.6-34.76-59.72-60-71.69-72.03c-2.85-2.87-6.48-4.79-10.38-5.58-1.3-.26-2.64-.4-3.99-.4h0Z"/>
    </g>
    <g>
      <path class="cls-1" d="M1084.56,1238.47l249.02,250.18c1.45,1.45,2.66,3.1,3.6,4.88-.95-1.78-2.16-3.43-3.6-4.88l-249.02-250.18Z"/>
      <path d="M1084.56,1238.47l249.02,250.18c1.45,1.45,2.66,3.1,3.6,4.88-.95-1.78-2.16-3.43-3.6-4.88l-249.02-250.18h0Z"/>
    </g>
    <g>
      <path class="cls-1" d="M600.03,952.41c0-7.77,8.98-17.19,17.23-17.19,3.01,0,6.25,1.33,6.25,5.82,0,5.43-3.83,9.84-7.46,9.84-1.13,0-1.84-.78-1.84-1.76,0-2.11,3.05-4.1,5.59-4.1.78,0,1.45.16,1.76.43.7-1.09,1.09-3.28,1.09-4.38,0-3.71-2.54-5.08-5.55-5.08-7.42,0-16.25,8.91-16.25,16.29,0,4.65,2.77,7.54,7.19,7.54,7.66,0,15.74-5,42.93-27.93,2.93-2.46,5.7-4.84,8.4-7.23h-9.45c-2.93,0-4.84.74-5.9,1.91-.43.39-.66.47-.82.47-.23,0-.27-.23,0-.55,1.41-1.88,3.24-3.24,6.91-3.24l10.78.04c7.97-7.19,15.04-14.22,22.73-21.8,8.16-7.93,13.59-12.27,16.88-12.27,1.64,0,2.15,1.88,2.15,3.09,0,2.34-1.6,4.53-3.59,7.03-12.85,14.96-18.98,21.99-30.39,36.48-9.38,11.64-11.33,18.01-11.33,20.74,0,2.27,1.21,3.16,2.97,3.16,6.84,0,16.09-10.04,25.08-19.41.27-.27.86-.27.94,0-9.3,9.69-18.79,20.23-26.17,20.23-3.16,0-5-2.38-5-6.09s1.91-11.02,10.55-21.68c2.11-2.66,4.49-5.62,7.11-8.79-2.73.59-5,.66-7.3.66h-4.84c-2.93,2.58-5.94,5.2-9.26,7.89-27.46,22.97-35.43,28.01-43.4,28.01-5.08,0-7.97-3.24-7.97-8.16ZM673.31,923.39c7.97-9.65,17.62-20.86,25.94-30.2,1.09-1.25,1.41-1.88,1.41-2.3,0-.35-.23-.66-.82-.66-2.73,0-8.05,4.26-15.78,11.91-8.32,8.24-14.8,14.73-21.88,21.17l11.13.08Z"/>
      <path class="cls-1" d="M661.27,988.3c0-7.46,6.56-18.67,15.82-29.49-8.28-1.45-13.71-7.34-13.71-14.84,0-10.82,9.69-17.5,16.05-18.98.47-.08.47.35.31.55-5.98,1.37-15.59,8.16-15.59,18.52,0,7.19,5.35,12.85,13.52,14.1,14.3-16.48,34.77-31.95,47.73-31.95,3.16,0,4.8,1.72,4.8,3.95,0,7.97-24.14,28.75-48.48,29.02-10.04,11.95-17.5,24.53-17.5,32.3,0,3.75,2.27,6.48,6.99,6.48,13.44,0,33.12-20.12,33.12-29.41,0-2.58-1.21-3.95-3.59-3.95-7.42,0-17.46,10.82-22.23,17.38-.31.2-.74,0-.47-.47,4.26-6.48,14.88-17.66,22.73-17.66,2.85,0,4.34,1.64,4.34,4.73,0,9.69-20.27,30.08-33.98,30.08-7.42,0-9.88-4.69-9.88-10.35ZM729.44,930.14c0-1.76-1.17-3.12-3.91-3.12-10.74,0-29.3,15.04-43.16,31.41,23.83-.66,47.07-20.82,47.07-28.28Z"/>
    </g>
  </g>
</svg>